# xmcd
#
# Track frame offsets: 
#        150
#        17890
#        32058
#        45806
#        62960
#        76768
#        91869
#        105305
#        122059
#        139473
#        151029
#        166331
#        187710
#        202655
#        208522
#
# Disc length: 2988 seconds
#
# Revision: 0
# Processed by: cddbd v1.5.2PL0 Copyright (c) Steve Scherf et al.
# Submitted via: ExactAudioCopy v0.99pb5
#
DISCID=ad0baa0f
DTITLE=Laura Nyro  - Mother's Spiritual 1984
DYEAR=1900
DGENRE=
TTITLE0=To a Child
TTITLE1=The Right to Vote
TTITLE2=A Wilderness
TTITLE3=Melody in the Sky
TTITLE4=Late for Love
TTITLE5=A Free Thinker
TTITLE6=Man in the Moon
TTITLE7=Talk to Green Tree
TTITLE8=Trees of the Ages
TTITLE9=The Brigfter Song
TTITLE10=Roadnotes
TTITLE11=Sophia
TTITLE12=Mother's Spiritual
TTITLE13=Refrain
TTITLE14=Man in the Moon(LIVE)
EXTD=
EXTT0=
EXTT1=
EXTT2=
EXTT3=
EXTT4=
EXTT5=
EXTT6=
EXTT7=
EXTT8=
EXTT9=
EXTT10=
EXTT11=
EXTT12=
EXTT13=
EXTT14=
PLAYORDER=
